<svg width="14" height="8" viewBox="0 0 14 8" fill="none" xmlns="http://www.w3.org/2000/svg">
<path d="M13.364 7.70697C13.1764 7.89444 12.9221 7.99976 12.657 7.99976C12.3918 7.99976 12.1375 7.89444 11.95 7.70697L6.99995 2.75697L2.04995 7.70697C1.86135 7.88913 1.60875 7.98992 1.34655 7.98764C1.08435 7.98536 0.83354 7.88019 0.648132 7.69479C0.462724 7.50938 0.357556 7.25857 0.355278 6.99637C0.353 6.73417 0.453794 6.48157 0.635952 6.29297L6.29295 0.635969C6.48048 0.448497 6.73479 0.343182 6.99995 0.343182C7.26512 0.343182 7.51942 0.448498 7.70695 0.635969L13.364 6.29297C13.5514 6.4805 13.6567 6.73481 13.6567 6.99997C13.6567 7.26513 13.5514 7.51944 13.364 7.70697Z" fill="white"/>
</svg>
