<svg width="216" height="44" viewBox="0 0 216 44" fill="none" xmlns="http://www.w3.org/2000/svg">
<path fill-rule="evenodd" clip-rule="evenodd" d="M21.931 0L43.8619 21.931L21.931 43.8619L0 21.931L21.931 0ZM3.41644 21.931L21.931 40.4455L40.4455 21.931L21.931 3.41644L3.41644 21.931Z" fill="white"/>
<path fill-rule="evenodd" clip-rule="evenodd" d="M21.9706 14.3223L28.9021 20.9739L27.4022 22.5374L21.9706 17.3251L16.539 22.5374L15.0391 20.9739L21.9706 14.3223Z" fill="white"/>
<path fill-rule="evenodd" clip-rule="evenodd" d="M21.9706 19.9707L28.9021 26.6224L27.4022 28.1859L21.9706 22.9736L16.539 28.1859L15.0391 26.6224L21.9706 19.9707Z" fill="white"/>
<path d="M191.391 33.1192L201.857 9.9873H205.401L215.999 33.1192H211.701L208.879 26.6226L210.585 27.771H196.706L198.478 26.6226L195.656 33.1192H191.391ZM203.596 14.5153L198.97 25.4742L198.117 24.457H209.141L208.452 25.4742L203.728 14.5153H203.596Z" fill="white"/>
<path d="M183.942 33.1192V13.4653H176.297V9.9873H195.82V13.4653H188.175V33.1192H183.942Z" fill="white"/>
<path d="M156.188 33.1192L166.654 9.9873H170.198L180.796 33.1192H176.498L173.676 26.6226L175.382 27.771H161.503L163.275 26.6226L160.453 33.1192H156.188ZM168.393 14.5153L163.767 25.4742L162.914 24.457H173.938L173.249 25.4742L168.525 14.5153H168.393Z" fill="white"/>
<path d="M136.531 33.1192V9.9873H144.931C147.578 9.9873 149.809 10.4467 151.624 11.3654C153.462 12.2622 154.851 13.5747 155.791 15.3027C156.732 17.0089 157.202 19.0869 157.202 21.5368C157.202 23.9649 156.732 26.0429 155.791 27.771C154.851 29.499 153.462 30.8224 151.624 31.7411C149.809 32.6598 147.578 33.1192 144.931 33.1192H136.531ZM140.764 29.6084H144.668C147.468 29.6084 149.546 28.9412 150.903 27.6069C152.259 26.2726 152.937 24.2492 152.937 21.5368C152.937 18.8026 152.259 16.7792 150.903 15.4668C149.546 14.1325 147.468 13.4653 144.668 13.4653H140.764V29.6084Z" fill="white"/>
<path d="M125.847 33.1192V11.2669H117.25V9.9873H135.821V11.2669H127.225V33.1192H125.847Z" fill="white"/>
<path d="M97.5 33.1192V9.9873H98.8781V20.7494H114.66V9.9873H116.038V33.1192H114.66V22.029H98.8781V33.1192H97.5Z" fill="white"/>
<path d="M86.2308 33.3805C83.7809 33.3805 81.7247 32.9212 80.0623 32.0024C78.4217 31.0618 77.1859 29.7057 76.3546 27.9338C75.5453 26.162 75.1406 24.0293 75.1406 21.5357C75.1406 19.0858 75.5562 16.9858 76.3874 15.2359C77.2405 13.4641 78.4546 12.1079 80.0295 11.1673C81.6263 10.2049 83.5403 9.72363 85.7715 9.72363C87.4558 9.72363 88.8995 9.99706 90.1025 10.5439C91.3275 11.0689 92.4431 11.8454 93.4493 12.8735L92.7274 14.0219C92.0056 13.3219 91.2947 12.7641 90.5947 12.3485C89.9166 11.911 89.1948 11.5939 88.4292 11.397C87.6636 11.1783 86.7667 11.0689 85.7386 11.0689C82.8294 11.0689 80.5763 11.9876 78.9795 13.825C77.4046 15.6625 76.6171 18.2436 76.6171 21.5685C76.6171 24.959 77.3937 27.551 78.9467 29.3447C80.5217 31.1384 82.9497 32.0352 86.2308 32.0352C87.4776 32.0352 88.637 31.9259 89.7088 31.7071C90.8025 31.4665 91.8306 31.1275 92.7931 30.69L92.3993 31.8712V22.6841H86.0339V21.4044H93.7118V31.7728C92.8805 32.2321 91.765 32.6149 90.365 32.9211C88.987 33.2274 87.6089 33.3805 86.2308 33.3805Z" fill="white"/>
<path d="M70.625 33.1192V9.9873H72.0031V33.1192H70.625Z" fill="white"/>
<path d="M55.4609 33.1192V9.9873H56.839V31.8396H69.2416V33.1192H55.4609Z" fill="white"/>
</svg>
